<svg width="24" height="24" viewBox="0 0 24 24" fill="none" xmlns="http://www.w3.org/2000/svg">
<path d="M0 12C0 5.37258 5.37258 0 12 0C18.6274 0 24 5.37258 24 12C24 18.6274 18.6274 24 12 24C5.37258 24 0 18.6274 0 12Z" fill="#FCFCFD"/>
<path d="M12.0008 8.81065C12.9772 8.81065 13.6359 9.23243 14.0115 9.58488L15.479 8.15199C14.5777 7.31421 13.4048 6.79999 12.0008 6.79999C9.96702 6.79999 8.21058 7.9671 7.35547 9.66577L9.0368 10.9715C9.45858 9.71777 10.6257 8.81065 12.0008 8.81065Z" fill="#23262F"/>
<path d="M16.992 12.1155C16.992 11.688 16.9573 11.376 16.8822 11.0524H12V12.9822H14.8658C14.808 13.4618 14.496 14.184 13.8027 14.6693L15.4436 15.9404C16.4258 15.0333 16.992 13.6987 16.992 12.1155Z" fill="#23262F"/>
<path d="M9.04256 13.0284C8.93278 12.7049 8.86922 12.3582 8.86922 12C8.86922 11.6418 8.93278 11.2951 9.03678 10.9715L7.35545 9.66577C7.003 10.3707 6.80078 11.1622 6.80078 12C6.80078 12.8378 7.003 13.6293 7.35545 14.3342L9.04256 13.0284Z" fill="#23262F"/>
<path d="M12.0009 17.2C13.4049 17.2 14.5835 16.7378 15.4444 15.9404L13.8035 14.6693C13.3644 14.9756 12.7751 15.1893 12.0009 15.1893C10.6258 15.1893 9.45866 14.2822 9.04266 13.0284L7.36133 14.3342C8.21644 16.0329 9.96711 17.2 12.0009 17.2Z" fill="#23262F"/>
</svg>
